# xmcd
#
# Track frame offsets:
#	150
#	56209
#	113849
#	161641
#	216332
#	270193
#	324063
#
# Disc length: 4451 seconds
# Revision: 0
# Processed by: cddbd v1.5.2PL0 Copyright (c) Steve Scherf et al.
# Submitted via: dBpowerAMP V12.0
#
DISCID=5b116107
DTITLE=Fidel - Live Vol. 2 Nou la pi Red
DYEAR=2011
DGENRE=World
TTITLE0=Bamboche
TTITLE1=Aux Antilles
TTITLE2=Fan'm Kréole
TTITLE3=Ce Nan ou
TTITLE4=Hommage
TTITLE5=Ti Dlo
TTITLE6=Jump
EXTD=
EXTT0=
EXTT1=
EXTT2=
EXTT3=
EXTT4=
EXTT5=
EXTT6=
PLAYORDER=
